<svg width="808" height="228" viewBox="0 0 808 228" fill="none" xmlns="http://www.w3.org/2000/svg">
<g clip-path="url(#clip0_2_3)">
<path d="M57.4219 169.172C46.2891 169.172 37.6953 166.145 31.6406 160.09C24.9349 153.384 21.582 143.033 21.582 129.035C21.582 123.501 22.1029 117.349 23.1445 110.578C24.1862 103.807 25.6836 97.0365 27.6367 90.2656C29.7201 83.0391 32.2917 76.138 35.3516 69.5625C38.4766 62.987 41.9596 57.2253 45.8008 52.2773C54.7201 40.8841 64.7135 35.1875 75.7812 35.1875C77.7995 35.1875 79.5898 35.3177 81.1523 35.5781C82.7799 35.7734 84.4727 36.1966 86.2305 36.8477C80.4362 40.2331 74.707 47.5898 69.043 58.918C63.8346 69.3997 59.5703 81.2161 56.25 94.3672C52.8646 107.583 51.1719 119.4 51.1719 129.816C51.1719 136.848 52.0833 142.382 53.9062 146.418C55.8594 150.78 58.8216 152.961 62.793 152.961C66.0482 152.961 69.3359 151.691 72.6562 149.152C76.0417 146.613 79.362 143.033 82.6172 138.41C85.7422 133.918 88.6393 128.71 91.3086 122.785C93.9779 116.796 96.2891 110.415 98.2422 103.645C102.474 89.0612 104.59 75.2591 104.59 62.2383C104.59 55.9883 104.232 50.7474 103.516 46.5156C102.799 42.2839 101.53 38.7682 99.707 35.9688C97.7539 32.974 95.1172 30.7604 91.7969 29.3281C88.4766 27.8958 84.2122 27.1797 79.0039 27.1797C71.3867 27.1797 64.0951 28.3841 57.1289 30.793C50.1628 33.1367 44.043 36.5221 38.7695 40.9492C33.3008 45.5716 29.0365 51.0729 25.9766 57.4531C22.9167 63.8333 21.3867 70.8971 21.3867 78.6445C21.3867 81.5742 21.7448 84.1133 22.4609 86.2617C22.6562 87.1081 22.8841 87.7266 23.1445 88.1172C23.3398 88.5729 23.4375 88.9961 23.4375 89.3867C16.7969 89.3867 11.7513 88.0846 8.30078 85.4805C4.91536 82.8112 3.22266 78.5143 3.22266 72.5898C3.22266 63.4102 7.0638 54.5234 14.7461 45.9297C22.2982 37.5964 32.0964 30.9232 44.1406 25.9102C56.8359 20.6367 70.0521 18 83.7891 18C100.456 18 112.728 22.7852 120.605 32.3555C127.637 40.9492 131.152 53.2214 131.152 69.1719C131.152 75.8776 130.534 82.9414 129.297 90.3633C128.06 97.7852 126.204 105.077 123.73 112.238C120.996 120.051 117.611 127.342 113.574 134.113C109.603 140.884 105.013 146.776 99.8047 151.789C87.7604 163.378 73.6328 169.172 57.4219 169.172ZM140.242 60.5781H169.051L165.828 75.6172C172.599 69.888 180.379 67.0234 189.168 67.0234C196.655 67.0234 202.449 69.3021 206.551 73.8594C211.238 79.1979 213.582 87.4336 213.582 98.5664C213.582 109.309 212.215 119.4 209.48 128.84C206.03 140.884 201.017 150.227 194.441 156.867C186.368 165.07 176.342 169.172 164.363 169.172C159.741 169.172 155.932 168.456 152.938 167.023C150.659 165.982 148.803 164.322 147.371 162.043L137.02 210.773L106.844 218L140.242 60.5781ZM158.211 151.789C164.656 151.789 170.19 148.501 174.812 141.926C178.458 136.783 181.388 129.556 183.602 120.246C185.359 112.759 186.238 105.337 186.238 97.9805C186.238 91.4049 185.034 86.7174 182.625 83.918C181.062 82.2253 178.914 81.3789 176.18 81.3789C173.771 81.3789 171.329 82.2253 168.855 83.918C166.382 85.6107 164.233 88.0521 162.41 91.2422L150.594 147.199C151.049 148.501 151.896 149.608 153.133 150.52C154.435 151.366 156.128 151.789 158.211 151.789ZM239.176 169.172C229.345 169.172 221.76 166.698 216.422 161.75C210.758 156.477 207.926 148.371 207.926 137.434C207.926 133.332 208.349 128.775 209.195 123.762C209.977 118.749 211.181 113.736 212.809 108.723C214.632 103.124 216.943 97.8177 219.742 92.8047C222.607 87.7917 225.927 83.3646 229.703 79.5234C238.427 70.6693 249.169 66.2422 261.93 66.2422C270.068 66.2422 275.992 68.1953 279.703 72.1016C282.568 75.1615 284 79.5885 284 85.3828C284 91.0469 282.763 96.3854 280.289 101.398C277.815 106.346 274.397 110.741 270.035 114.582C265.673 118.358 260.725 121.385 255.191 123.664C249.658 125.878 243.928 127.18 238.004 127.57C237.678 130.956 237.516 133.625 237.516 135.578C237.516 142.089 238.753 146.581 241.227 149.055C243.375 151.268 246.956 152.375 251.969 152.375C259.195 152.375 265.803 150.422 271.793 146.516C274.332 144.888 276.773 142.967 279.117 140.754C281.461 138.475 284.195 135.611 287.32 132.16H294.156C287.841 142.837 280.582 151.333 272.379 157.648C262.288 165.331 251.22 169.172 239.176 169.172ZM239.566 118C243.277 117.74 246.891 116.665 250.406 114.777C253.922 112.889 257.047 110.415 259.781 107.355C262.516 104.23 264.664 100.747 266.227 96.9062C267.789 93 268.57 89.0286 268.57 84.9922C268.57 82.3229 268.18 80.3047 267.398 78.9375C266.682 77.5052 265.413 76.7891 263.59 76.7891C261.181 76.7891 258.74 77.9609 256.266 80.3047C253.857 82.6484 251.513 85.8711 249.234 89.9727C247.151 93.8138 245.263 98.1758 243.57 103.059C241.878 107.941 240.543 112.922 239.566 118ZM351.488 169.172C343.22 169.172 337.1 166.828 333.129 162.141C329.678 158.104 327.953 152.928 327.953 146.613C327.953 143.618 328.311 140.135 329.027 136.164C329.809 132.193 330.948 127.082 332.445 120.832C333.943 114.452 335.049 109.374 335.766 105.598C336.547 101.757 336.938 98.4362 336.938 95.6367C336.938 88.8008 334.529 85.3828 329.711 85.3828C326.326 85.3828 323.201 87.1732 320.336 90.7539C317.927 93.8138 315.844 98.1758 314.086 103.84L300.512 168H271.703L292.895 68H321.703L319.555 78.3516C323.461 73.9896 327.66 70.9297 332.152 69.1719C335.473 67.8698 339.053 67.2188 342.895 67.2188C349.665 67.2188 355.004 68.9766 358.91 72.4922C363.077 76.3333 365.16 82.0951 365.16 89.7773C365.16 94.3997 364.314 100.422 362.621 107.844C362.165 109.992 361.417 113.215 360.375 117.512C358.487 124.738 357.12 130.5 356.273 134.797C355.753 137.531 355.492 139.745 355.492 141.438C355.492 144.107 356.078 146.19 357.25 147.688C358.487 149.12 360.57 149.836 363.5 149.836C367.471 149.836 370.824 148.208 373.559 144.953C375.642 142.479 377.888 138.215 380.297 132.16H388.695C383.747 146.809 377.497 157.062 369.945 162.922C364.607 167.089 358.454 169.172 351.488 169.172ZM421.223 171.613C414.842 171.613 409.081 170.767 403.938 169.074C398.794 167.447 394.367 165.07 390.656 161.945C386.88 158.82 383.983 155.109 381.965 150.812C380.012 146.516 379.035 141.763 379.035 136.555C379.035 132.193 379.719 128.091 381.086 124.25C382.518 120.344 384.504 116.958 387.043 114.094C389.582 111.229 392.544 109.016 395.93 107.453C399.315 105.826 402.896 105.012 406.672 105.012C411.359 105.012 415.298 106.184 418.488 108.527C421.678 110.871 423.664 114.094 424.445 118.195C417.479 118.195 411.945 120.051 407.844 123.762C405.891 125.52 404.361 127.668 403.254 130.207C402.212 132.746 401.691 135.546 401.691 138.605C401.691 144.465 403.384 149.12 406.77 152.57C410.22 155.956 414.842 157.648 420.637 157.648C424.087 157.648 427.31 157.03 430.305 155.793C433.299 154.491 435.904 152.733 438.117 150.52C440.331 148.306 442.023 145.669 443.195 142.609C444.432 139.484 445.051 136.164 445.051 132.648C445.051 126.138 442.837 119.367 438.41 112.336C436.652 109.602 434.699 106.932 432.551 104.328C430.467 101.659 427.538 98.1432 423.762 93.7812C420.376 89.875 417.544 86.4896 415.266 83.625C412.987 80.7604 410.936 77.8307 409.113 74.8359C404.686 67.6094 402.473 60.513 402.473 53.5469C402.473 48.3385 403.579 43.5208 405.793 39.0938C408.007 34.6016 411.164 30.6953 415.266 27.375C419.367 24.0547 424.152 21.4831 429.621 19.6602C435.09 17.8372 440.982 16.9258 447.297 16.9258C458.039 16.9258 466.665 19.4648 473.176 24.543C476.301 27.0169 478.677 29.9792 480.305 33.4297C481.997 36.8802 482.844 40.7214 482.844 44.9531C482.844 50.487 481.444 55.0117 478.645 58.5273C477.342 60.2201 475.715 61.5221 473.762 62.4336C471.874 63.3451 469.855 63.8008 467.707 63.8008C462.694 63.8008 458.625 61.7174 455.5 57.5508C458.039 55.7279 460.025 53.319 461.457 50.3242C462.954 47.2643 463.703 44.0091 463.703 40.5586C463.703 36.2617 462.434 32.8763 459.895 30.4023C457.355 27.8633 453.872 26.5938 449.445 26.5938C446.776 26.5938 444.302 27.082 442.023 28.0586C439.81 29.0352 437.922 30.4349 436.359 32.2578C434.732 34.0807 433.462 36.2292 432.551 38.7031C431.704 41.1771 431.281 43.8789 431.281 46.8086C431.281 50.9753 432.258 54.9792 434.211 58.8203C436.164 62.6615 438.964 66.6654 442.609 70.832C445.865 74.6732 449.38 78.4818 453.156 82.2578C461.945 91.3724 468.163 100.259 471.809 108.918C473.957 114.061 475.031 119.725 475.031 125.91C475.031 132.421 473.697 138.475 471.027 144.074C468.358 149.608 464.549 154.426 459.602 158.527C454.654 162.694 448.892 165.917 442.316 168.195C435.741 170.474 428.71 171.613 421.223 171.613ZM506.973 169.172C497.142 169.172 489.557 166.698 484.219 161.75C478.555 156.477 475.723 148.371 475.723 137.434C475.723 133.332 476.146 128.775 476.992 123.762C477.773 118.749 478.978 113.736 480.605 108.723C482.428 103.124 484.74 97.8177 487.539 92.8047C490.404 87.7917 493.724 83.3646 497.5 79.5234C506.224 70.6693 516.966 66.2422 529.727 66.2422C537.865 66.2422 543.789 68.1953 547.5 72.1016C550.365 75.1615 551.797 79.5885 551.797 85.3828C551.797 91.0469 550.56 96.3854 548.086 101.398C545.612 106.346 542.194 110.741 537.832 114.582C533.47 118.358 528.522 121.385 522.988 123.664C517.454 125.878 511.725 127.18 505.801 127.57C505.475 130.956 505.312 133.625 505.312 135.578C505.312 142.089 506.549 146.581 509.023 149.055C511.172 151.268 514.753 152.375 519.766 152.375C526.992 152.375 533.6 150.422 539.59 146.516C542.129 144.888 544.57 142.967 546.914 140.754C549.258 138.475 551.992 135.611 555.117 132.16H561.953C555.638 142.837 548.379 151.333 540.176 157.648C530.085 165.331 519.017 169.172 506.973 169.172ZM507.363 118C511.074 117.74 514.688 116.665 518.203 114.777C521.719 112.889 524.844 110.415 527.578 107.355C530.312 104.23 532.461 100.747 534.023 96.9062C535.586 93 536.367 89.0286 536.367 84.9922C536.367 82.3229 535.977 80.3047 535.195 78.9375C534.479 77.5052 533.21 76.7891 531.387 76.7891C528.978 76.7891 526.536 77.9609 524.062 80.3047C521.654 82.6484 519.31 85.8711 517.031 89.9727C514.948 93.8138 513.06 98.1758 511.367 103.059C509.674 107.941 508.34 112.922 507.363 118ZM571.141 169.172C563.523 169.172 557.371 166.796 552.684 162.043C547.215 156.444 544.48 148.111 544.48 137.043C544.48 132.355 544.969 127.408 545.945 122.199C546.857 116.991 548.224 111.848 550.047 106.77C554.214 95.3112 559.91 86.0664 567.137 79.0352C575.47 71.0273 585.073 67.0234 595.945 67.0234C601.349 67.0234 605.385 67.9674 608.055 69.8555C610.789 71.6784 612.156 74.1198 612.156 77.1797V78.6445L614.305 68H643.113L628.758 135.969C628.172 137.922 627.879 140.07 627.879 142.414C627.879 148.143 630.613 151.008 636.082 151.008C639.728 151.008 643.048 149.152 646.043 145.441C648.582 142.316 650.665 137.889 652.293 132.16H660.691C657.111 142.316 652.781 150.357 647.703 156.281C643.406 161.164 638.556 164.68 633.152 166.828C629.181 168.391 624.982 169.172 620.555 169.172C614.891 169.172 610.366 167.642 606.98 164.582C603.66 161.457 601.642 156.867 600.926 150.812C597.15 156.151 593.178 160.318 589.012 163.312C583.673 167.219 577.716 169.172 571.141 169.172ZM584.129 149.836C585.626 149.836 587.189 149.445 588.816 148.664C590.509 147.883 592.137 146.776 593.699 145.344C597.215 141.958 599.559 137.564 600.73 132.16L610.301 87.043C610.301 86.3919 610.138 85.6432 609.812 84.7969C609.552 83.8854 609.161 83.0391 608.641 82.2578C607.078 80.3698 604.897 79.4258 602.098 79.4258C599.428 79.4258 596.824 80.3047 594.285 82.0625C591.811 83.8203 589.467 86.2617 587.254 89.3867C583.348 95.0508 580.125 102.44 577.586 111.555C576.414 115.591 575.535 119.595 574.949 123.566C574.363 127.473 574.07 131.021 574.07 134.211C574.07 140.852 575.307 145.344 577.781 147.688C578.628 148.599 579.572 149.185 580.613 149.445C581.655 149.706 582.827 149.836 584.129 149.836ZM765.973 169.172C757.704 169.172 751.585 166.828 747.613 162.141C744.163 158.104 742.438 152.928 742.438 146.613C742.438 143.618 742.796 140.135 743.512 136.164C744.293 132.193 745.432 127.082 746.93 120.832C748.427 114.452 749.534 109.374 750.25 105.598C751.031 101.757 751.422 98.4362 751.422 95.6367C751.422 88.8008 749.013 85.3828 744.195 85.3828C740.81 85.3828 737.685 87.1732 734.82 90.7539C732.411 93.8138 730.328 98.1758 728.57 103.84L714.996 168H686.188L700.836 98.957C701.227 97.3945 701.422 95.7344 701.422 93.9766C701.422 91.3073 700.999 89.2565 700.152 87.8242C699.046 86.0664 697.451 85.1875 695.367 85.1875C691.591 85.1875 688.303 87.0104 685.504 90.6562C683.03 93.7812 680.914 98.1758 679.156 103.84L665.582 168H636.773L657.965 68H686.773L684.625 78.3516C688.531 73.9896 692.796 70.8971 697.418 69.0742C701.064 67.707 704.938 67.0234 709.039 67.0234C714.638 67.0234 719.098 68.3255 722.418 70.9297C726.129 73.8594 728.505 78.2865 729.547 84.2109C733.844 77.5703 738.792 72.8828 744.391 70.1484C748.362 68.1953 752.691 67.2188 757.379 67.2188C764.085 67.2188 769.391 68.9766 773.297 72.4922C777.464 76.3333 779.547 82.0951 779.547 89.7773C779.547 94.1393 778.733 100.161 777.105 107.844C776.454 111.034 775.673 114.257 774.762 117.512C773.134 123.762 771.799 129.523 770.758 134.797C770.237 137.531 769.977 139.745 769.977 141.438C769.977 144.107 770.562 146.19 771.734 147.688C772.971 149.12 775.055 149.836 777.984 149.836C781.956 149.836 785.309 148.208 788.043 144.953C790.126 142.479 792.372 138.215 794.781 132.16H803.18C798.232 146.809 791.982 157.062 784.43 162.922C779.091 167.089 772.939 169.172 765.973 169.172Z" fill="black"/>
</g>
<defs>
<clipPath id="clip0_2_3">
<rect width="808" height="228" fill="white"/>
</clipPath>
</defs>
</svg>
