<svg width="1051" height="215" viewBox="0 0 1051 215" fill="none" xmlns="http://www.w3.org/2000/svg">
<g clip-path="url(#clip0_8_2)">
<path d="M57.4219 157.172C46.2891 157.172 37.6953 154.145 31.6406 148.09C24.9349 141.384 21.582 131.033 21.582 117.035C21.582 111.501 22.1029 105.349 23.1445 98.5781C24.1862 91.8073 25.6836 85.0365 27.6367 78.2656C29.7201 71.0391 32.2917 64.138 35.3516 57.5625C38.4766 50.987 41.9596 45.2253 45.8008 40.2773C54.7201 28.8841 64.7135 23.1875 75.7812 23.1875C77.7995 23.1875 79.5898 23.3177 81.1523 23.5781C82.7799 23.7734 84.4727 24.1966 86.2305 24.8477C80.4362 28.2331 74.707 35.5898 69.043 46.918C63.8346 57.3997 59.5703 69.2161 56.25 82.3672C52.8646 95.5833 51.1719 107.4 51.1719 117.816C51.1719 124.848 52.0833 130.382 53.9062 134.418C55.8594 138.78 58.8216 140.961 62.793 140.961C66.0482 140.961 69.3359 139.691 72.6562 137.152C76.0417 134.613 79.362 131.033 82.6172 126.41C85.7422 121.918 88.6393 116.71 91.3086 110.785C93.9779 104.796 96.2891 98.4154 98.2422 91.6445C102.474 77.0612 104.59 63.2591 104.59 50.2383C104.59 43.9883 104.232 38.7474 103.516 34.5156C102.799 30.2839 101.53 26.7682 99.707 23.9688C97.7539 20.974 95.1172 18.7604 91.7969 17.3281C88.4766 15.8958 84.2122 15.1797 79.0039 15.1797C71.3867 15.1797 64.0951 16.3841 57.1289 18.793C50.1628 21.1367 44.043 24.5221 38.7695 28.9492C33.3008 33.5716 29.0365 39.0729 25.9766 45.4531C22.9167 51.8333 21.3867 58.8971 21.3867 66.6445C21.3867 69.5742 21.7448 72.1133 22.4609 74.2617C22.6562 75.1081 22.8841 75.7266 23.1445 76.1172C23.3398 76.5729 23.4375 76.9961 23.4375 77.3867C16.7969 77.3867 11.7513 76.0846 8.30078 73.4805C4.91536 70.8112 3.22266 66.5143 3.22266 60.5898C3.22266 51.4102 7.0638 42.5234 14.7461 33.9297C22.2982 25.5964 32.0964 18.9232 44.1406 13.9102C56.8359 8.63672 70.0521 6 83.7891 6C100.456 6 112.728 10.7852 120.605 20.3555C127.637 28.9492 131.152 41.2214 131.152 57.1719C131.152 63.8776 130.534 70.9414 129.297 78.3633C128.06 85.7852 126.204 93.0768 123.73 100.238C120.996 108.051 117.611 115.342 113.574 122.113C109.603 128.884 105.013 134.776 99.8047 139.789C87.7604 151.378 73.6328 157.172 57.4219 157.172ZM140.242 48.5781H169.051L165.828 63.6172C172.599 57.888 180.379 55.0234 189.168 55.0234C196.655 55.0234 202.449 57.3021 206.551 61.8594C211.238 67.1979 213.582 75.4336 213.582 86.5664C213.582 97.3086 212.215 107.4 209.48 116.84C206.03 128.884 201.017 138.227 194.441 144.867C186.368 153.07 176.342 157.172 164.363 157.172C159.741 157.172 155.932 156.456 152.938 155.023C150.659 153.982 148.803 152.322 147.371 150.043L137.02 198.773L106.844 206L140.242 48.5781ZM158.211 139.789C164.656 139.789 170.19 136.501 174.812 129.926C178.458 124.783 181.388 117.556 183.602 108.246C185.359 100.759 186.238 93.3372 186.238 85.9805C186.238 79.4049 185.034 74.7174 182.625 71.918C181.062 70.2253 178.914 69.3789 176.18 69.3789C173.771 69.3789 171.329 70.2253 168.855 71.918C166.382 73.6107 164.233 76.0521 162.41 79.2422L150.594 135.199C151.049 136.501 151.896 137.608 153.133 138.52C154.435 139.366 156.128 139.789 158.211 139.789ZM239.176 157.172C229.345 157.172 221.76 154.698 216.422 149.75C210.758 144.477 207.926 136.371 207.926 125.434C207.926 121.332 208.349 116.775 209.195 111.762C209.977 106.749 211.181 101.736 212.809 96.7227C214.632 91.1237 216.943 85.8177 219.742 80.8047C222.607 75.7917 225.927 71.3646 229.703 67.5234C238.427 58.6693 249.169 54.2422 261.93 54.2422C270.068 54.2422 275.992 56.1953 279.703 60.1016C282.568 63.1615 284 67.5885 284 73.3828C284 79.0469 282.763 84.3854 280.289 89.3984C277.815 94.3464 274.397 98.7409 270.035 102.582C265.673 106.358 260.725 109.385 255.191 111.664C249.658 113.878 243.928 115.18 238.004 115.57C237.678 118.956 237.516 121.625 237.516 123.578C237.516 130.089 238.753 134.581 241.227 137.055C243.375 139.268 246.956 140.375 251.969 140.375C259.195 140.375 265.803 138.422 271.793 134.516C274.332 132.888 276.773 130.967 279.117 128.754C281.461 126.475 284.195 123.611 287.32 120.16H294.156C287.841 130.837 280.582 139.333 272.379 145.648C262.288 153.331 251.22 157.172 239.176 157.172ZM239.566 106C243.277 105.74 246.891 104.665 250.406 102.777C253.922 100.889 257.047 98.4154 259.781 95.3555C262.516 92.2305 264.664 88.7474 266.227 84.9062C267.789 81 268.57 77.0286 268.57 72.9922C268.57 70.3229 268.18 68.3047 267.398 66.9375C266.682 65.5052 265.413 64.7891 263.59 64.7891C261.181 64.7891 258.74 65.9609 256.266 68.3047C253.857 70.6484 251.513 73.8711 249.234 77.9727C247.151 81.8138 245.263 86.1758 243.57 91.0586C241.878 95.9414 240.543 100.922 239.566 106ZM351.488 157.172C343.22 157.172 337.1 154.828 333.129 150.141C329.678 146.104 327.953 140.928 327.953 134.613C327.953 131.618 328.311 128.135 329.027 124.164C329.809 120.193 330.948 115.082 332.445 108.832C333.943 102.452 335.049 97.3737 335.766 93.5977C336.547 89.7565 336.938 86.4362 336.938 83.6367C336.938 76.8008 334.529 73.3828 329.711 73.3828C326.326 73.3828 323.201 75.1732 320.336 78.7539C317.927 81.8138 315.844 86.1758 314.086 91.8398L300.512 156H271.703L292.895 56H321.703L319.555 66.3516C323.461 61.9896 327.66 58.9297 332.152 57.1719C335.473 55.8698 339.053 55.2188 342.895 55.2188C349.665 55.2188 355.004 56.9766 358.91 60.4922C363.077 64.3333 365.16 70.0951 365.16 77.7773C365.16 82.3997 364.314 88.4219 362.621 95.8438C362.165 97.9922 361.417 101.215 360.375 105.512C358.487 112.738 357.12 118.5 356.273 122.797C355.753 125.531 355.492 127.745 355.492 129.438C355.492 132.107 356.078 134.19 357.25 135.688C358.487 137.12 360.57 137.836 363.5 137.836C367.471 137.836 370.824 136.208 373.559 132.953C375.642 130.479 377.888 126.215 380.297 120.16H388.695C383.747 134.809 377.497 145.062 369.945 150.922C364.607 155.089 358.454 157.172 351.488 157.172ZM421.223 159.613C414.842 159.613 409.081 158.767 403.938 157.074C398.794 155.447 394.367 153.07 390.656 149.945C386.88 146.82 383.983 143.109 381.965 138.812C380.012 134.516 379.035 129.763 379.035 124.555C379.035 120.193 379.719 116.091 381.086 112.25C382.518 108.344 384.504 104.958 387.043 102.094C389.582 99.2292 392.544 97.0156 395.93 95.4531C399.315 93.8255 402.896 93.0117 406.672 93.0117C411.359 93.0117 415.298 94.1836 418.488 96.5273C421.678 98.8711 423.664 102.094 424.445 106.195C417.479 106.195 411.945 108.051 407.844 111.762C405.891 113.52 404.361 115.668 403.254 118.207C402.212 120.746 401.691 123.546 401.691 126.605C401.691 132.465 403.384 137.12 406.77 140.57C410.22 143.956 414.842 145.648 420.637 145.648C424.087 145.648 427.31 145.03 430.305 143.793C433.299 142.491 435.904 140.733 438.117 138.52C440.331 136.306 442.023 133.669 443.195 130.609C444.432 127.484 445.051 124.164 445.051 120.648C445.051 114.138 442.837 107.367 438.41 100.336C436.652 97.6016 434.699 94.9323 432.551 92.3281C430.467 89.6589 427.538 86.1432 423.762 81.7812C420.376 77.875 417.544 74.4896 415.266 71.625C412.987 68.7604 410.936 65.8307 409.113 62.8359C404.686 55.6094 402.473 48.513 402.473 41.5469C402.473 36.3385 403.579 31.5208 405.793 27.0938C408.007 22.6016 411.164 18.6953 415.266 15.375C419.367 12.0547 424.152 9.48307 429.621 7.66016C435.09 5.83724 440.982 4.92578 447.297 4.92578C458.039 4.92578 466.665 7.46484 473.176 12.543C476.301 15.0169 478.677 17.9792 480.305 21.4297C481.997 24.8802 482.844 28.7214 482.844 32.9531C482.844 38.487 481.444 43.0117 478.645 46.5273C477.342 48.2201 475.715 49.5221 473.762 50.4336C471.874 51.3451 469.855 51.8008 467.707 51.8008C462.694 51.8008 458.625 49.7174 455.5 45.5508C458.039 43.7279 460.025 41.319 461.457 38.3242C462.954 35.2643 463.703 32.0091 463.703 28.5586C463.703 24.2617 462.434 20.8763 459.895 18.4023C457.355 15.8633 453.872 14.5938 449.445 14.5938C446.776 14.5938 444.302 15.082 442.023 16.0586C439.81 17.0352 437.922 18.4349 436.359 20.2578C434.732 22.0807 433.462 24.2292 432.551 26.7031C431.704 29.1771 431.281 31.8789 431.281 34.8086C431.281 38.9753 432.258 42.9792 434.211 46.8203C436.164 50.6615 438.964 54.6654 442.609 58.832C445.865 62.6732 449.38 66.4818 453.156 70.2578C461.945 79.3724 468.163 88.2591 471.809 96.918C473.957 102.061 475.031 107.725 475.031 113.91C475.031 120.421 473.697 126.475 471.027 132.074C468.358 137.608 464.549 142.426 459.602 146.527C454.654 150.694 448.892 153.917 442.316 156.195C435.741 158.474 428.71 159.613 421.223 159.613ZM506.973 157.172C497.142 157.172 489.557 154.698 484.219 149.75C478.555 144.477 475.723 136.371 475.723 125.434C475.723 121.332 476.146 116.775 476.992 111.762C477.773 106.749 478.978 101.736 480.605 96.7227C482.428 91.1237 484.74 85.8177 487.539 80.8047C490.404 75.7917 493.724 71.3646 497.5 67.5234C506.224 58.6693 516.966 54.2422 529.727 54.2422C537.865 54.2422 543.789 56.1953 547.5 60.1016C550.365 63.1615 551.797 67.5885 551.797 73.3828C551.797 79.0469 550.56 84.3854 548.086 89.3984C545.612 94.3464 542.194 98.7409 537.832 102.582C533.47 106.358 528.522 109.385 522.988 111.664C517.454 113.878 511.725 115.18 505.801 115.57C505.475 118.956 505.312 121.625 505.312 123.578C505.312 130.089 506.549 134.581 509.023 137.055C511.172 139.268 514.753 140.375 519.766 140.375C526.992 140.375 533.6 138.422 539.59 134.516C542.129 132.888 544.57 130.967 546.914 128.754C549.258 126.475 551.992 123.611 555.117 120.16H561.953C555.638 130.837 548.379 139.333 540.176 145.648C530.085 153.331 519.017 157.172 506.973 157.172ZM507.363 106C511.074 105.74 514.688 104.665 518.203 102.777C521.719 100.889 524.844 98.4154 527.578 95.3555C530.312 92.2305 532.461 88.7474 534.023 84.9062C535.586 81 536.367 77.0286 536.367 72.9922C536.367 70.3229 535.977 68.3047 535.195 66.9375C534.479 65.5052 533.21 64.7891 531.387 64.7891C528.978 64.7891 526.536 65.9609 524.062 68.3047C521.654 70.6484 519.31 73.8711 517.031 77.9727C514.948 81.8138 513.06 86.1758 511.367 91.0586C509.674 95.9414 508.34 100.922 507.363 106ZM571.141 157.172C563.523 157.172 557.371 154.796 552.684 150.043C547.215 144.444 544.48 136.111 544.48 125.043C544.48 120.355 544.969 115.408 545.945 110.199C546.857 104.991 548.224 99.8477 550.047 94.7695C554.214 83.3112 559.91 74.0664 567.137 67.0352C575.47 59.0273 585.073 55.0234 595.945 55.0234C601.349 55.0234 605.385 55.9674 608.055 57.8555C610.789 59.6784 612.156 62.1198 612.156 65.1797V66.6445L614.305 56H643.113L628.758 123.969C628.172 125.922 627.879 128.07 627.879 130.414C627.879 136.143 630.613 139.008 636.082 139.008C639.728 139.008 643.048 137.152 646.043 133.441C648.582 130.316 650.665 125.889 652.293 120.16H660.691C657.111 130.316 652.781 138.357 647.703 144.281C643.406 149.164 638.556 152.68 633.152 154.828C629.181 156.391 624.982 157.172 620.555 157.172C614.891 157.172 610.366 155.642 606.98 152.582C603.66 149.457 601.642 144.867 600.926 138.812C597.15 144.151 593.178 148.318 589.012 151.312C583.673 155.219 577.716 157.172 571.141 157.172ZM584.129 137.836C585.626 137.836 587.189 137.445 588.816 136.664C590.509 135.883 592.137 134.776 593.699 133.344C597.215 129.958 599.559 125.564 600.73 120.16L610.301 75.043C610.301 74.3919 610.138 73.6432 609.812 72.7969C609.552 71.8854 609.161 71.0391 608.641 70.2578C607.078 68.3698 604.897 67.4258 602.098 67.4258C599.428 67.4258 596.824 68.3047 594.285 70.0625C591.811 71.8203 589.467 74.2617 587.254 77.3867C583.348 83.0508 580.125 90.4401 577.586 99.5547C576.414 103.591 575.535 107.595 574.949 111.566C574.363 115.473 574.07 119.021 574.07 122.211C574.07 128.852 575.307 133.344 577.781 135.688C578.628 136.599 579.572 137.185 580.613 137.445C581.655 137.706 582.827 137.836 584.129 137.836ZM765.973 157.172C757.704 157.172 751.585 154.828 747.613 150.141C744.163 146.104 742.438 140.928 742.438 134.613C742.438 131.618 742.796 128.135 743.512 124.164C744.293 120.193 745.432 115.082 746.93 108.832C748.427 102.452 749.534 97.3737 750.25 93.5977C751.031 89.7565 751.422 86.4362 751.422 83.6367C751.422 76.8008 749.013 73.3828 744.195 73.3828C740.81 73.3828 737.685 75.1732 734.82 78.7539C732.411 81.8138 730.328 86.1758 728.57 91.8398L714.996 156H686.188L700.836 86.957C701.227 85.3945 701.422 83.7344 701.422 81.9766C701.422 79.3073 700.999 77.2565 700.152 75.8242C699.046 74.0664 697.451 73.1875 695.367 73.1875C691.591 73.1875 688.303 75.0104 685.504 78.6562C683.03 81.7812 680.914 86.1758 679.156 91.8398L665.582 156H636.773L657.965 56H686.773L684.625 66.3516C688.531 61.9896 692.796 58.8971 697.418 57.0742C701.064 55.707 704.938 55.0234 709.039 55.0234C714.638 55.0234 719.098 56.3255 722.418 58.9297C726.129 61.8594 728.505 66.2865 729.547 72.2109C733.844 65.5703 738.792 60.8828 744.391 58.1484C748.362 56.1953 752.691 55.2188 757.379 55.2188C764.085 55.2188 769.391 56.9766 773.297 60.4922C777.464 64.3333 779.547 70.0951 779.547 77.7773C779.547 82.1393 778.733 88.1615 777.105 95.8438C776.454 99.0339 775.673 102.257 774.762 105.512C773.134 111.762 771.799 117.523 770.758 122.797C770.237 125.531 769.977 127.745 769.977 129.438C769.977 132.107 770.562 134.19 771.734 135.688C772.971 137.12 775.055 137.836 777.984 137.836C781.956 137.836 785.309 136.208 788.043 132.953C790.126 130.479 792.372 126.215 794.781 120.16H803.18C798.232 134.809 791.982 145.062 784.43 150.922C779.091 155.089 772.939 157.172 765.973 157.172Z" fill="black"/>
<rect x="848" y="43" width="194" height="113" rx="20" fill="#0066FF" fill-opacity="0.15"/>
<path d="M892.219 127.938C889.432 127.938 887.193 127.469 885.5 126.531C883.807 125.568 882.505 124.487 881.594 123.289C880.682 122.065 879.979 121.062 879.484 120.281H878.703V127H872.297V68.7969H878.938V90.2812H879.484C879.979 89.526 880.669 88.5625 881.555 87.3906C882.44 86.1927 883.716 85.125 885.383 84.1875C887.049 83.25 889.302 82.7812 892.141 82.7812C895.812 82.7812 899.042 83.7057 901.828 85.5547C904.615 87.3776 906.789 89.9818 908.352 93.3672C909.94 96.7266 910.734 100.698 910.734 105.281C910.734 109.891 909.953 113.901 908.391 117.312C906.828 120.698 904.654 123.315 901.867 125.164C899.081 127.013 895.865 127.938 892.219 127.938ZM891.359 121.922C894.146 121.922 896.477 121.18 898.352 119.695C900.227 118.185 901.633 116.167 902.57 113.641C903.534 111.115 904.016 108.302 904.016 105.203C904.016 102.13 903.547 99.3568 902.609 96.8828C901.672 94.4089 900.266 92.4427 898.391 90.9844C896.542 89.526 894.198 88.7969 891.359 88.7969C888.625 88.7969 886.333 89.487 884.484 90.8672C882.635 92.2214 881.229 94.1354 880.266 96.6094C879.328 99.0573 878.859 101.922 878.859 105.203C878.859 108.484 879.341 111.388 880.305 113.914C881.268 116.414 882.674 118.38 884.523 119.812C886.398 121.219 888.677 121.922 891.359 121.922ZM935.5 127.938C931.307 127.938 927.674 127 924.602 125.125C921.555 123.25 919.211 120.633 917.57 117.273C915.93 113.888 915.109 109.969 915.109 105.516C915.109 101.036 915.917 97.0911 917.531 93.6797C919.146 90.2682 921.411 87.599 924.328 85.6719C927.271 83.7448 930.708 82.7812 934.641 82.7812C936.906 82.7812 939.159 83.1589 941.398 83.9141C943.638 84.6693 945.669 85.8932 947.492 87.5859C949.341 89.2786 950.812 91.5182 951.906 94.3047C953 97.0911 953.547 100.516 953.547 104.578V107.469H919.875V101.688H949.914L946.828 103.875C946.828 100.958 946.372 98.3672 945.461 96.1016C944.549 93.8359 943.182 92.0521 941.359 90.75C939.562 89.4479 937.323 88.7969 934.641 88.7969C931.958 88.7969 929.654 89.4609 927.727 90.7891C925.826 92.0911 924.367 93.7969 923.352 95.9062C922.336 98.0156 921.828 100.281 921.828 102.703V106.531C921.828 109.839 922.401 112.638 923.547 114.93C924.693 117.221 926.294 118.966 928.352 120.164C930.409 121.336 932.792 121.922 935.5 121.922C937.245 121.922 938.833 121.674 940.266 121.18C941.698 120.659 942.935 119.891 943.977 118.875C945.018 117.833 945.812 116.557 946.359 115.047L952.844 116.922C952.167 119.109 951.021 121.036 949.406 122.703C947.818 124.344 945.839 125.633 943.469 126.57C941.099 127.482 938.443 127.938 935.5 127.938ZM978.781 83.3281V89.0312H956.203V83.3281H978.781ZM962.766 72.9375H969.406V114.5C969.406 116.766 969.875 118.432 970.812 119.5C971.75 120.542 973.234 121.062 975.266 121.062C975.708 121.062 976.164 121.036 976.633 120.984C977.128 120.932 977.661 120.854 978.234 120.75L979.641 126.766C979.016 127 978.247 127.182 977.336 127.312C976.451 127.469 975.552 127.547 974.641 127.547C971.125 127.547 968.26 126.505 966.047 124.422C963.859 122.339 962.766 119.63 962.766 116.297V72.9375ZM998 128.016C995.24 128.016 992.727 127.495 990.461 126.453C988.195 125.385 986.398 123.849 985.07 121.844C983.742 119.839 983.078 117.417 983.078 114.578C983.078 112.078 983.573 110.06 984.562 108.523C985.552 106.961 986.867 105.737 988.508 104.852C990.174 103.94 991.997 103.263 993.977 102.82C995.982 102.378 998 102.026 1000.03 101.766C1002.69 101.427 1004.84 101.167 1006.48 100.984C1008.14 100.802 1009.35 100.49 1010.11 100.047C1010.89 99.6042 1011.28 98.849 1011.28 97.7812V97.5469C1011.28 94.7604 1010.51 92.599 1008.98 91.0625C1007.47 89.5 1005.16 88.7188 1002.06 88.7188C998.885 88.7188 996.385 89.4219 994.562 90.8281C992.74 92.2083 991.464 93.6927 990.734 95.2812L984.328 93.0156C985.474 90.3594 986.997 88.2891 988.898 86.8047C990.826 85.3203 992.909 84.2786 995.148 83.6797C997.414 83.0807 999.641 82.7812 1001.83 82.7812C1003.23 82.7812 1004.85 82.9505 1006.67 83.2891C1008.49 83.6016 1010.27 84.2786 1011.98 85.3203C1013.73 86.3359 1015.16 87.8854 1016.28 89.9688C1017.43 92.026 1018 94.7865 1018 98.25V127H1011.28V121.062H1010.97C1010.53 122 1009.77 123.016 1008.7 124.109C1007.64 125.177 1006.22 126.102 1004.45 126.883C1002.7 127.638 1000.55 128.016 998 128.016ZM999.016 122C1001.67 122 1003.91 121.479 1005.73 120.438C1007.56 119.396 1008.94 118.055 1009.88 116.414C1010.81 114.747 1011.28 113.016 1011.28 111.219V105.047C1010.99 105.385 1010.37 105.698 1009.41 105.984C1008.47 106.245 1007.38 106.479 1006.12 106.688C1004.9 106.896 1003.7 107.078 1002.53 107.234C1001.36 107.365 1000.42 107.469 999.719 107.547C997.974 107.781 996.346 108.159 994.836 108.68C993.326 109.174 992.102 109.917 991.164 110.906C990.253 111.896 989.797 113.25 989.797 114.969C989.797 117.286 990.656 119.044 992.375 120.242C994.12 121.414 996.333 122 999.016 122Z" fill="black" fill-opacity="0.5"/>
</g>
<defs>
<clipPath id="clip0_8_2">
<rect width="1051" height="215" fill="white"/>
</clipPath>
</defs>
</svg>
