<svg width="296" height="201" viewBox="0 0 296 201" fill="none" xmlns="http://www.w3.org/2000/svg">
<g clip-path="url(#clip0_13_5)">
<path d="M87.4219 174.172C76.2891 174.172 67.6953 171.145 61.6406 165.09C54.9349 158.384 51.582 148.033 51.582 134.035C51.582 128.501 52.1029 122.349 53.1445 115.578C54.1862 108.807 55.6836 102.036 57.6367 95.2656C59.7201 88.0391 62.2917 81.138 65.3516 74.5625C68.4766 67.987 71.9596 62.2253 75.8008 57.2773C84.7201 45.8841 94.7135 40.1875 105.781 40.1875C107.799 40.1875 109.59 40.3177 111.152 40.5781C112.78 40.7734 114.473 41.1966 116.23 41.8477C110.436 45.2331 104.707 52.5898 99.043 63.918C93.8346 74.3997 89.5703 86.2161 86.25 99.3672C82.8646 112.583 81.1719 124.4 81.1719 134.816C81.1719 141.848 82.0833 147.382 83.9062 151.418C85.8594 155.78 88.8216 157.961 92.793 157.961C96.0482 157.961 99.3359 156.691 102.656 154.152C106.042 151.613 109.362 148.033 112.617 143.41C115.742 138.918 118.639 133.71 121.309 127.785C123.978 121.796 126.289 115.415 128.242 108.645C132.474 94.0612 134.59 80.2591 134.59 67.2383C134.59 60.9883 134.232 55.7474 133.516 51.5156C132.799 47.2839 131.53 43.7682 129.707 40.9688C127.754 37.974 125.117 35.7604 121.797 34.3281C118.477 32.8958 114.212 32.1797 109.004 32.1797C101.387 32.1797 94.0951 33.3841 87.1289 35.793C80.1628 38.1367 74.043 41.5221 68.7695 45.9492C63.3008 50.5716 59.0365 56.0729 55.9766 62.4531C52.9167 68.8333 51.3867 75.8971 51.3867 83.6445C51.3867 86.5742 51.7448 89.1133 52.4609 91.2617C52.6562 92.1081 52.8841 92.7266 53.1445 93.1172C53.3398 93.5729 53.4375 93.9961 53.4375 94.3867C46.7969 94.3867 41.7513 93.0846 38.3008 90.4805C34.9154 87.8112 33.2227 83.5143 33.2227 77.5898C33.2227 68.4102 37.0638 59.5234 44.7461 50.9297C52.2982 42.5964 62.0964 35.9232 74.1406 30.9102C86.8359 25.6367 100.052 23 113.789 23C130.456 23 142.728 27.7852 150.605 37.3555C157.637 45.9492 161.152 58.2214 161.152 74.1719C161.152 80.8776 160.534 87.9414 159.297 95.3633C158.06 102.785 156.204 110.077 153.73 117.238C150.996 125.051 147.611 132.342 143.574 139.113C139.603 145.884 135.013 151.776 129.805 156.789C117.76 168.378 103.633 174.172 87.4219 174.172Z" fill="black"/>
<rect x="164" y="117" width="96" height="56" rx="20" fill="#0066FF" fill-opacity="0.15"/>
<path d="M187.898 155.422C186.645 155.422 185.637 155.211 184.875 154.789C184.113 154.355 183.527 153.869 183.117 153.33C182.707 152.779 182.391 152.328 182.168 151.977H181.816V155H178.934V128.809H181.922V138.477H182.168C182.391 138.137 182.701 137.703 183.1 137.176C183.498 136.637 184.072 136.156 184.822 135.734C185.572 135.312 186.586 135.102 187.863 135.102C189.516 135.102 190.969 135.518 192.223 136.35C193.477 137.17 194.455 138.342 195.158 139.865C195.873 141.377 196.23 143.164 196.23 145.227C196.23 147.301 195.879 149.105 195.176 150.641C194.473 152.164 193.494 153.342 192.24 154.174C190.986 155.006 189.539 155.422 187.898 155.422ZM187.512 152.715C188.766 152.715 189.814 152.381 190.658 151.713C191.502 151.033 192.135 150.125 192.557 148.988C192.99 147.852 193.207 146.586 193.207 145.191C193.207 143.809 192.996 142.561 192.574 141.447C192.152 140.334 191.52 139.449 190.676 138.793C189.844 138.137 188.789 137.809 187.512 137.809C186.281 137.809 185.25 138.119 184.418 138.74C183.586 139.35 182.953 140.211 182.52 141.324C182.098 142.426 181.887 143.715 181.887 145.191C181.887 146.668 182.104 147.975 182.537 149.111C182.971 150.236 183.604 151.121 184.436 151.766C185.279 152.398 186.305 152.715 187.512 152.715ZM207.375 155.422C205.488 155.422 203.854 155 202.471 154.156C201.1 153.312 200.045 152.135 199.307 150.623C198.568 149.1 198.199 147.336 198.199 145.332C198.199 143.316 198.562 141.541 199.289 140.006C200.016 138.471 201.035 137.27 202.348 136.402C203.672 135.535 205.219 135.102 206.988 135.102C208.008 135.102 209.021 135.271 210.029 135.611C211.037 135.951 211.951 136.502 212.771 137.264C213.604 138.025 214.266 139.033 214.758 140.287C215.25 141.541 215.496 143.082 215.496 144.91V146.211H200.344V143.609H213.861L212.473 144.594C212.473 143.281 212.268 142.115 211.857 141.096C211.447 140.076 210.832 139.273 210.012 138.688C209.203 138.102 208.195 137.809 206.988 137.809C205.781 137.809 204.744 138.107 203.877 138.705C203.021 139.291 202.365 140.059 201.908 141.008C201.451 141.957 201.223 142.977 201.223 144.066V145.789C201.223 147.277 201.48 148.537 201.996 149.568C202.512 150.6 203.232 151.385 204.158 151.924C205.084 152.451 206.156 152.715 207.375 152.715C208.16 152.715 208.875 152.604 209.52 152.381C210.164 152.146 210.721 151.801 211.189 151.344C211.658 150.875 212.016 150.301 212.262 149.621L215.18 150.465C214.875 151.449 214.359 152.316 213.633 153.066C212.918 153.805 212.027 154.385 210.961 154.807C209.895 155.217 208.699 155.422 207.375 155.422ZM226.852 135.348V137.914H216.691V135.348H226.852ZM219.645 130.672H222.633V149.375C222.633 150.395 222.844 151.145 223.266 151.625C223.688 152.094 224.355 152.328 225.27 152.328C225.469 152.328 225.674 152.316 225.885 152.293C226.107 152.27 226.348 152.234 226.605 152.188L227.238 154.895C226.957 155 226.611 155.082 226.201 155.141C225.803 155.211 225.398 155.246 224.988 155.246C223.406 155.246 222.117 154.777 221.121 153.84C220.137 152.902 219.645 151.684 219.645 150.184V130.672ZM235.5 155.457C234.258 155.457 233.127 155.223 232.107 154.754C231.088 154.273 230.279 153.582 229.682 152.68C229.084 151.777 228.785 150.688 228.785 149.41C228.785 148.285 229.008 147.377 229.453 146.686C229.898 145.982 230.49 145.432 231.229 145.033C231.979 144.623 232.799 144.318 233.689 144.119C234.592 143.92 235.5 143.762 236.414 143.645C237.609 143.492 238.576 143.375 239.314 143.293C240.064 143.211 240.609 143.07 240.949 142.871C241.301 142.672 241.477 142.332 241.477 141.852V141.746C241.477 140.492 241.131 139.52 240.439 138.828C239.76 138.125 238.723 137.773 237.328 137.773C235.898 137.773 234.773 138.09 233.953 138.723C233.133 139.344 232.559 140.012 232.23 140.727L229.348 139.707C229.863 138.512 230.549 137.58 231.404 136.912C232.271 136.244 233.209 135.775 234.217 135.506C235.236 135.236 236.238 135.102 237.223 135.102C237.855 135.102 238.582 135.178 239.402 135.33C240.223 135.471 241.02 135.775 241.793 136.244C242.578 136.701 243.223 137.398 243.727 138.336C244.242 139.262 244.5 140.504 244.5 142.062V155H241.477V152.328H241.336C241.137 152.75 240.797 153.207 240.316 153.699C239.836 154.18 239.197 154.596 238.4 154.947C237.615 155.287 236.648 155.457 235.5 155.457ZM235.957 152.75C237.152 152.75 238.16 152.516 238.98 152.047C239.801 151.578 240.422 150.975 240.844 150.236C241.266 149.486 241.477 148.707 241.477 147.898V145.121C241.348 145.273 241.066 145.414 240.633 145.543C240.211 145.66 239.719 145.766 239.156 145.859C238.605 145.953 238.066 146.035 237.539 146.105C237.012 146.164 236.59 146.211 236.273 146.246C235.488 146.352 234.756 146.521 234.076 146.756C233.396 146.979 232.846 147.312 232.424 147.758C232.014 148.203 231.809 148.812 231.809 149.586C231.809 150.629 232.195 151.42 232.969 151.959C233.754 152.486 234.75 152.75 235.957 152.75Z" fill="black" fill-opacity="0.5"/>
</g>
<defs>
<clipPath id="clip0_13_5">
<rect width="296" height="201" fill="white"/>
</clipPath>
</defs>
</svg>
